<?xml version="1.0" encoding="utf-8"?><svg xmlns="http://www.w3.org/2000/svg" xmlns:xlink="http://www.w3.org/1999/xlink"><symbol viewBox="0 0 512.001 512.001" id="close" xmlns="http://www.w3.org/2000/svg"><path d="M284.286 256.002L506.143 34.144c7.811-7.811 7.811-20.475 0-28.285-7.811-7.81-20.475-7.811-28.285 0L256 227.717 34.143 5.859c-7.811-7.811-20.475-7.811-28.285 0-7.81 7.811-7.811 20.475 0 28.285l221.857 221.857L5.858 477.859c-7.811 7.811-7.811 20.475 0 28.285a19.938 19.938 0 0014.143 5.857 19.94 19.94 0 0014.143-5.857L256 284.287l221.857 221.857c3.905 3.905 9.024 5.857 14.143 5.857s10.237-1.952 14.143-5.857c7.811-7.811 7.811-20.475 0-28.285L284.286 256.002z"/></symbol><symbol viewBox="0 0 448.098 448.098" id="loupe" xmlns="http://www.w3.org/2000/svg"><path d="M184.08 0C82.46 0 .08 82.38.08 184s82.38 184 184 184 184-82.38 184-184C367.992 82.416 285.664.088 184.08 0zm0 304c-66.274 0-120-53.726-120-120s53.726-120 120-120 120 53.726 120 120c-.088 66.238-53.762 119.912-120 120zm254.56 89.44l-64-64c-12.504-12.504-32.776-12.504-45.28 0s-12.504 32.776 0 45.28l64 64c12.504 12.504 32.776 12.504 45.28 0s12.504-32.776 0-45.28z"/></symbol><symbol viewBox="0 0 511.997 511.997" id="shopping-cart" xmlns="http://www.w3.org/2000/svg"><path d="M405.387 362.612c-35.202 0-63.84 28.639-63.84 63.84s28.639 63.84 63.84 63.84 63.84-28.639 63.84-63.84-28.639-63.84-63.84-63.84zm0 89.376c-14.083 0-25.536-11.453-25.536-25.536s11.453-25.536 25.536-25.536c14.083 0 25.536 11.453 25.536 25.536s-11.453 25.536-25.536 25.536zm102.54-336.113a19.128 19.128 0 00-15.079-7.348H118.22l-17.237-72.12a19.16 19.16 0 00-18.629-14.702H19.152C8.574 21.704 0 30.278 0 40.856s8.574 19.152 19.152 19.152h48.085l62.244 260.443a19.153 19.153 0 0018.629 14.702h298.135c8.804 0 16.477-6.001 18.59-14.543l46.604-188.329a19.185 19.185 0 00-3.512-16.406zM431.261 296.85H163.227l-35.853-150.019h341.003L431.261 296.85zm-257.615 65.762c-35.202 0-63.84 28.639-63.84 63.84s28.639 63.84 63.84 63.84 63.84-28.639 63.84-63.84-28.639-63.84-63.84-63.84zm0 89.376c-14.083 0-25.536-11.453-25.536-25.536s11.453-25.536 25.536-25.536 25.536 11.453 25.536 25.536-11.453 25.536-25.536 25.536z"/></symbol></svg>